<svg width="900" height="900" viewBox="0 0 900 900" fill="none" xmlns="http://www.w3.org/2000/svg">
<g opacity="0.05">
<circle cx="450" cy="450" r="450" fill="#151515"/>
<path fill-rule="evenodd" clip-rule="evenodd" d="M409.212 180.024C484.188 179.377 547.933 205.335 600.448 257.85L652.628 310.029L612.542 350.116L461.295 505.313L460.146 506.487C436.104 530.529 397.095 530.529 373.077 506.487C350.088 483.498 349.082 446.86 370.036 422.674H370.059C371.017 421.548 372.023 420.447 373.077 419.393C374.322 418.148 375.59 416.975 376.907 415.873L483.973 310.149C460.937 297.074 435.217 290.25 406.84 289.627C362.539 288.669 324.728 303.875 293.43 335.173C262.108 366.495 246.926 404.283 247.884 448.584C248.842 492.861 264.958 530.673 296.28 561.995L296.878 562.593C277.29 550.069 260.048 534.336 245.8 516.185C224.224 488.67 209.57 455.6 204.206 419.632C198.435 381.031 203.823 342.549 218.574 308.138C251.812 230.551 325.997 180.718 409.235 180L409.212 180.024ZM647.456 589.533L643.456 593.532L597.599 639.39C544.773 692.216 481.027 719.108 406.362 720.065C331.697 721.023 268.119 695.233 215.604 642.718C163.089 590.203 137.227 526.362 138.018 451.242C138.808 376.098 165.461 312.256 217.975 259.766C220.729 257.012 223.531 254.33 226.357 251.696C215.126 266.519 205.762 282.635 198.482 299.613C182.175 337.664 176.212 380.217 182.582 422.818C188.544 462.641 204.756 499.279 228.631 529.691C297.549 617.503 439.815 646.286 522.167 563.91L572 514.078L647.456 589.533ZM711.751 385.533C747.24 385.533 776 414.293 776 449.781C776 485.27 747.24 514.03 711.751 514.03C676.263 514.03 647.503 485.27 647.503 449.781C647.503 414.293 676.263 385.533 711.751 385.533Z" fill="#E25319"/>
</g>
</svg>
