<svg width="10" height="10" viewBox="0 0 10 10" fill="none" xmlns="http://www.w3.org/2000/svg">
<path d="M5.38542 0.572937V1.71877C5.38542 2.79906 5.38542 3.33944 5.72092 3.67494C6.05642 4.01044 6.59679 4.01044 7.67708 4.01044H9.51042M3.09375 4.01044H2.40625C2.22391 4.01044 2.04905 4.08287 1.92011 4.2118C1.79118 4.34073 1.71875 4.5156 1.71875 4.69794C1.71875 4.88027 1.79118 5.05514 1.92011 5.18407C2.04905 5.313 2.22391 5.38544 2.40625 5.38544M3.09375 4.01044V5.38544M3.09375 4.01044H3.78125C3.96359 4.01044 4.13845 4.08287 4.26739 4.2118C4.39632 4.34073 4.46875 4.5156 4.46875 4.69794C4.46875 4.88027 4.39632 5.05514 4.26739 5.18407C4.13845 5.313 3.96359 5.38544 3.78125 5.38544H3.09375M3.09375 5.38544H2.40625M3.09375 5.38544V6.76044M2.40625 5.38544C2.22391 5.38544 2.04905 5.45787 1.92011 5.5868C1.79118 5.71573 1.71875 5.8906 1.71875 6.07294C1.71875 6.25527 1.79118 6.43014 1.92011 6.55907C2.04905 6.688 2.22391 6.76044 2.40625 6.76044M3.09375 6.76044H2.40625M3.09375 6.76044V7.44794C3.09375 7.63027 3.02132 7.80514 2.89239 7.93407C2.76345 8.063 2.58859 8.13544 2.40625 8.13544C2.22391 8.13544 2.04905 8.063 1.92011 7.93407C1.79118 7.80514 1.71875 7.63027 1.71875 7.44794C1.71875 7.2656 1.79118 7.09073 1.92011 6.9618C2.04905 6.83287 2.22391 6.76044 2.40625 6.76044" stroke="#E25319" stroke-width="0.5"/>
<path d="M4.46875 6.07294C4.46875 5.8906 4.39632 5.71573 4.26739 5.5868C4.13845 5.45787 3.96359 5.38544 3.78125 5.38544C3.59891 5.38544 3.42405 5.45787 3.29511 5.5868C3.16618 5.71573 3.09375 5.8906 3.09375 6.07294C3.09375 6.25527 3.16618 6.43014 3.29511 6.55907C3.42405 6.688 3.59891 6.76044 3.78125 6.76044C3.96359 6.76044 4.13845 6.688 4.26739 6.55907C4.39632 6.43014 4.46875 6.25527 4.46875 6.07294Z" stroke="#E25319" stroke-width="0.5"/>
<path d="M0.687501 4.01044C0.687501 3.91927 0.651284 3.83184 0.586819 3.76737C0.522353 3.70291 0.434919 3.66669 0.343751 3.66669C0.252582 3.66669 0.165148 3.70291 0.100683 3.76737C0.036217 3.83184 5.80149e-07 3.91927 5.80149e-07 4.01044H0.687501ZM9.16667 5.84378C9.16667 5.93494 9.20288 6.02238 9.26735 6.08684C9.33181 6.15131 9.41925 6.18753 9.51042 6.18753C9.60159 6.18753 9.68902 6.15131 9.75349 6.08684C9.81795 6.02238 9.85417 5.93494 9.85417 5.84378H9.16667ZM0.0481256 2.14365C0.0392519 2.23439 0.066789 2.32494 0.124679 2.39538C0.182569 2.46582 0.26607 2.51038 0.356813 2.51925C0.447556 2.52813 0.538107 2.50059 0.608546 2.4427C0.678986 2.38481 0.723544 2.30131 0.732417 2.21057L0.0481256 2.14365ZM9.80604 7.71057C9.81044 7.66564 9.80594 7.62028 9.7928 7.57709C9.77967 7.53389 9.75815 7.49371 9.72949 7.45883C9.70082 7.42396 9.66557 7.39506 9.62574 7.37381C9.58591 7.35256 9.54229 7.33936 9.49736 7.33496C9.45242 7.33057 9.40707 7.33507 9.36387 7.3482C9.32068 7.36134 9.2805 7.38285 9.24562 7.41152C9.17518 7.46941 9.13062 7.55291 9.12175 7.64365L9.80604 7.71057ZM5.84375 9.16669H4.01042V9.85419H5.84375V9.16669ZM0.687501 5.84378V4.01044H5.80149e-07V5.84378H0.687501ZM9.16667 5.64348V5.84378H9.85417V5.64348H9.16667ZM6.25213 1.54048L8.06667 3.17353L8.52638 2.66203L6.71229 1.02898L6.25213 1.54048ZM9.85417 5.64348C9.85417 4.86936 9.86104 4.37894 9.66625 3.94077L9.03788 4.22082C9.15979 4.4949 9.16667 4.80886 9.16667 5.64348H9.85417ZM8.06667 3.17353C8.68679 3.73178 8.91596 3.94719 9.03788 4.22082L9.66625 3.94077C9.471 3.50215 9.10204 3.17994 8.52638 2.66203L8.06667 3.17353ZM4.02417 0.687526C4.74925 0.687526 5.02288 0.693026 5.26625 0.786526L5.51283 0.144859C5.12233 -0.00547444 4.697 2.55683e-05 4.02417 2.55683e-05V0.687526ZM6.71229 1.02944C6.21454 0.581651 5.90333 0.294276 5.51283 0.144859L5.26671 0.786526C5.51054 0.880026 5.71588 1.05786 6.25213 1.54048L6.71229 1.02944ZM4.01042 9.16669C3.13638 9.16669 2.51579 9.16578 2.04417 9.10253C1.58354 9.04065 1.31771 8.92423 1.12383 8.73036L0.638001 9.21619C0.980834 9.55994 1.41579 9.71165 1.95296 9.78407C2.48004 9.85511 3.15608 9.85419 4.01042 9.85419V9.16669ZM5.80149e-07 5.84378C5.80149e-07 6.69811 -0.000916088 7.37369 0.0701256 7.90123C0.142542 8.4384 0.294709 8.87336 0.637542 9.21665L1.12338 8.73082C0.929959 8.53648 0.813542 8.27065 0.751667 7.80957C0.688417 7.33886 0.687501 6.71782 0.687501 5.84378H5.80149e-07ZM5.84375 9.85419C6.69808 9.85419 7.37367 9.85511 7.90121 9.78407C8.43838 9.71165 8.87333 9.55948 9.21663 9.21665L8.73079 8.73082C8.53646 8.92423 8.27063 9.04065 7.80954 9.10253C7.33883 9.16578 6.71779 9.16669 5.84375 9.16669V9.85419ZM4.02417 2.55683e-05C3.16479 2.55683e-05 2.486 -0.000891098 1.95663 0.0701506C1.41717 0.142567 0.980834 0.294734 0.637542 0.637567L1.12338 1.1234C1.31771 0.929984 1.584 0.813567 2.04783 0.751692C2.52129 0.688442 3.14554 0.687526 4.02417 0.687526V2.55683e-05ZM0.732417 2.21057C0.787876 1.64498 0.907501 1.33973 1.12383 1.12386L0.638001 0.638026C0.254834 1.02028 0.109542 1.51757 0.0481256 2.14365L0.732417 2.21057ZM9.12175 7.64365C9.06629 8.20923 8.94621 8.51448 8.73033 8.73036L9.21617 9.21619C9.59933 8.83394 9.74463 8.33665 9.80604 7.71057L9.12175 7.64365Z" fill="#E25319"/>
</svg>
