<svg width="45" height="69" viewBox="0 0 45 69" fill="none" xmlns="http://www.w3.org/2000/svg">
<g clip-path="url(#clip0_33_79942)">
<path d="M11.2371 68.9993C17.44 68.9993 22.4743 63.8473 22.4743 57.4993V45.9993H11.2371C5.03424 45.9993 0 51.1513 0 57.4993C0 63.8473 5.03424 68.9993 11.2371 68.9993Z" fill="#0ACF83"/>
<path d="M0 34.4996C0 28.1516 5.03424 22.9996 11.2371 22.9996H22.4743V45.9996H11.2371C5.03424 45.9996 0 40.8476 0 34.4996Z" fill="#A259FF"/>
<path d="M0 11.5C0 5.152 5.03424 0 11.2371 0L22.4743 0V23H11.2371C5.03424 23 0 17.848 0 11.5Z" fill="#F24E1E"/>
<path d="M22.4742 0L33.7114 0C39.9143 0 44.9485 5.152 44.9485 11.5C44.9485 17.848 39.9143 23 33.7114 23H22.4742V0Z" fill="#FF7262"/>
<path d="M44.9485 34.4996C44.9485 40.8476 39.9143 45.9996 33.7114 45.9996C27.5085 45.9996 22.4742 40.8476 22.4742 34.4996C22.4742 28.1516 27.5085 22.9996 33.7114 22.9996C39.9143 22.9996 44.9485 28.1516 44.9485 34.4996Z" fill="#1ABCFE"/>
</g>
<defs>
<clipPath id="clip0_33_79942">
<rect width="44.9486" height="69" fill="white"/>
</clipPath>
</defs>
</svg>
