<svg width="159" height="23" viewBox="0 0 159 23" fill="none" xmlns="http://www.w3.org/2000/svg">
<path d="M61.4426 13.5187C62.5945 13.5187 63.5284 12.5813 63.5284 11.4251C63.5284 10.269 62.5945 9.33156 61.4426 9.33156C60.2908 9.33156 59.3569 10.269 59.3569 11.4251C59.3569 12.5813 60.2908 13.5187 61.4426 13.5187Z" fill="#E25319"/>
<path d="M156.914 13.5187C158.066 13.5187 159 12.5813 159 11.4251C159 10.269 158.066 9.33156 156.914 9.33156C155.762 9.33156 154.828 10.269 154.828 11.4251C154.828 12.5813 155.762 13.5187 156.914 13.5187Z" fill="#E25319"/>
<path d="M38.9156 13.5187C40.0675 13.5187 41.0014 12.5813 41.0014 11.4251C41.0014 10.269 40.0675 9.33156 38.9156 9.33156C37.7638 9.33156 36.8299 10.269 36.8299 11.4251C36.8299 12.5813 37.7638 13.5187 38.9156 13.5187Z" fill="#E25319"/>
<path d="M35.8644 4.12742C31.8239 4.12742 29.0348 7.53703 29.0348 11.5927C29.0348 15.7201 32.0742 19.0938 35.8644 19.0938H48.3794C48.6655 19.0938 48.9158 19.3451 48.9158 19.6322V22.4316C48.9158 22.7547 48.6655 22.97 48.3794 22.97H35.4711C29.7499 22.97 25.1373 17.9094 25.1373 11.6286V11.5568C25.1373 5.27592 29.7499 0.215344 35.4711 0.215344H48.3794C48.6655 0.215344 48.9158 0.466577 48.9158 0.753703V3.55317C48.9158 3.87619 48.6655 4.12742 48.3794 4.12742H35.8644Z" fill="#E25319"/>
<path d="M62.6719 0.143561C68.5004 0.143561 73.2561 4.91702 73.2561 10.7672V12.3464C73.2561 18.2324 68.5004 22.97 62.6719 22.97H60.0259C54.1975 22.97 49.4776 18.2324 49.4776 12.3464V10.7672C49.4776 4.91702 54.1975 0.143561 60.0259 0.143561H62.6719ZM69.3228 11.8439V11.4491C69.3228 7.17813 66.0689 3.73263 62.0283 3.73263H60.6338C56.629 3.73263 53.3751 7.17813 53.3751 11.4491V11.8439C53.3751 16.1149 56.629 19.5604 60.6338 19.5604H62.0283C66.0689 19.5604 69.3228 16.1149 69.3228 11.8439Z" fill="#E25319"/>
<path d="M99.5311 0.215344C99.8172 0.215344 100.032 0.430687 100.032 0.753703V18.053C100.032 20.7807 97.9936 22.97 95.4906 22.97H94.3106C91.9864 22.97 89.8767 21.5703 88.804 19.3451L81.9386 4.95291C81.7956 4.66578 81.5095 4.45044 81.1877 4.45044H80.7944C80.2223 4.45044 79.7574 4.9888 79.7574 5.63483V22.4316C79.7574 22.7547 79.5071 22.97 79.2211 22.97H76.3605C76.0745 22.97 75.8599 22.7547 75.8599 22.4316V5.13236C75.8599 2.40467 77.8623 0.215344 80.3653 0.215344H81.4023C83.5119 0.215344 85.4786 1.47151 86.4798 3.51728L93.6312 17.9453C93.7742 18.2683 94.0603 18.4478 94.3821 18.4478H95.0973C95.6694 18.4119 96.1342 17.9094 96.1342 17.2634V0.753703C96.1342 0.430687 96.3487 0.215344 96.6348 0.215344H99.5311Z" fill="#E25319"/>
<path d="M156.118 0.215344C156.368 0.215344 156.511 0.466577 156.404 0.68192L149.324 18.053C147.644 22.1086 143.245 24.2262 139.133 22.2522C137.345 21.3908 135.987 19.7398 135.236 17.8018L128.585 0.68192C128.513 0.466577 128.656 0.215344 128.871 0.215344H132.447C132.804 0.215344 133.126 0.430687 133.269 0.789593L139.169 16.4379C139.741 17.9453 141.1 18.9503 142.602 18.9503C144.139 18.9503 145.498 17.9453 146.07 16.402L151.827 0.825483C151.97 0.430687 152.292 0.215344 152.685 0.215344H156.118Z" fill="#E25319"/>
<path d="M23.564 0.0358923C23.9573 0.0358923 24.2433 0.323016 24.2433 0.717814C24.2433 1.57919 24.2433 2.40467 24.2433 3.23016C24.2433 3.62495 23.9215 3.94797 23.5282 3.94797H0.60787C0.250299 3.94797 0 3.66084 0 3.30194V0.610141C0 0.287126 0.2503 0 0.572114 0L23.564 0.0358923ZM23.3494 18.9144C23.7427 18.9144 24.0646 19.2374 24.0646 19.6322C24.0646 20.4577 24.0288 21.2831 24.0288 22.1086C24.0288 22.5034 23.707 22.7906 23.3137 22.7906H0.500601C0.214544 22.7906 0 22.5393 0 22.2522V14.1768C0 11.5927 2.07391 9.47513 4.68419 9.47513H16.8774C17.2707 9.47513 17.5925 9.79814 17.5925 10.1929C17.5925 11.0184 17.5925 11.8439 17.5568 12.6694C17.5568 13.0642 17.2349 13.3872 16.8774 13.3872L4.82722 13.3513C4.32661 13.3513 3.89753 13.782 3.89753 14.2845V18.3401C3.89753 18.6631 4.11207 18.9144 4.39813 18.9144H23.3494Z" fill="#E25319"/>
<path fill-rule="evenodd" clip-rule="evenodd" d="M114.41 0.00101392C117.57 -0.0263352 120.256 1.07168 122.469 3.29304L124.668 5.50021L122.979 7.19586L116.605 13.7607L116.557 13.8103C115.543 14.8273 113.899 14.8273 112.887 13.8103C111.919 12.8379 111.876 11.2881 112.759 10.265H112.76C112.8 10.2174 112.843 10.1708 112.887 10.1263C112.94 10.0736 112.993 10.024 113.049 9.97738L117.561 5.50528C116.59 4.95222 115.506 4.66354 114.31 4.63721C112.443 4.59669 110.85 5.23989 109.531 6.56379C108.211 7.88871 107.571 9.48713 107.611 11.361C107.652 13.234 108.331 14.8334 109.651 16.1583L109.676 16.1836C108.851 15.6539 108.124 14.9884 107.524 14.2206C106.614 13.0567 105.997 11.6578 105.771 10.1364C105.527 8.50356 105.755 6.87578 106.376 5.4202C107.777 2.1383 110.903 0.030388 114.411 0L114.41 0.00101392ZM124.45 17.3232L122.349 19.4321C120.123 21.6666 117.437 22.8041 114.29 22.8447C111.143 22.8852 108.464 21.7942 106.251 19.5729C104.038 17.3515 102.948 14.6511 102.981 11.4735C103.015 8.2949 104.138 5.59442 106.351 3.37407C106.467 3.25758 106.585 3.14414 106.704 3.03271C106.231 3.65972 105.836 4.34142 105.529 5.05959C104.842 6.66914 104.591 8.46913 104.859 10.2711C105.111 11.9556 105.794 13.5054 106.8 14.7919C109.704 18.5063 115.7 19.7238 119.17 16.2393L121.27 14.1314L124.45 17.3232ZM127.16 8.69399C128.655 8.69399 129.867 9.91053 129.867 11.4117C129.867 12.9129 128.655 14.1294 127.16 14.1294C125.664 14.1294 124.452 12.9129 124.452 11.4117C124.452 9.91053 125.664 8.69399 127.16 8.69399Z" fill="#E25319"/>
</svg>
